<svg width="554" height="475" viewBox="0 0 554 475" fill="none" xmlns="http://www.w3.org/2000/svg">
<path d="M344.537 463.258L542.388 265.407C557.86 249.975 557.86 224.887 542.388 209.455L344.537 11.6039C329.065 -3.86798 304.017 -3.86798 288.585 11.6039C273.153 27.0759 273.113 52.1238 288.585 67.5561L418.89 197.861H39.5702C17.7274 197.861 0 215.588 0 237.431C0 259.274 17.7274 277.001 39.5702 277.001H418.89L288.585 407.305C280.869 415.022 276.991 425.152 276.991 435.282C276.991 445.412 280.869 455.541 288.585 463.258C304.057 478.73 329.105 478.73 344.537 463.258Z" fill="#18162D"/>
</svg>
